<svg width="18" height="12" viewBox="0 0 18 12" fill="none" xmlns="http://www.w3.org/2000/svg">
<path fill-rule="evenodd" clip-rule="evenodd" d="M17.5011 5.62579C17.5011 5.46003 17.4353 5.30106 17.3181 5.18385C17.2008 5.06664 17.0419 5.00079 16.8761 5.00079H2.13487L6.06862 1.06829C6.12673 1.01018 6.17282 0.941193 6.20427 0.865269C6.23572 0.789345 6.25191 0.707969 6.25191 0.625789C6.25191 0.54361 6.23572 0.462234 6.20427 0.38631C6.17282 0.310386 6.12673 0.241399 6.06862 0.183289C6.01051 0.125179 5.94152 0.0790843 5.8656 0.0476354C5.78967 0.0161866 5.7083 0 5.62612 0C5.54394 0 5.46256 0.0161866 5.38664 0.0476354C5.31071 0.0790843 5.24173 0.125179 5.18362 0.183289L0.183617 5.18329C0.125413 5.24135 0.0792346 5.31032 0.0477266 5.38625C0.0162185 5.46218 0 5.54358 0 5.62579C0 5.708 0.0162185 5.7894 0.0477266 5.86533C0.0792346 5.94126 0.125413 6.01023 0.183617 6.06829L5.18362 11.0683C5.24173 11.1264 5.31071 11.1725 5.38664 11.2039C5.46256 11.2354 5.54394 11.2516 5.62612 11.2516C5.7083 11.2516 5.78967 11.2354 5.8656 11.2039C5.94152 11.1725 6.01051 11.1264 6.06862 11.0683C6.12673 11.0102 6.17282 10.9412 6.20427 10.8653C6.23572 10.7893 6.25191 10.708 6.25191 10.6258C6.25191 10.5436 6.23572 10.4622 6.20427 10.3863C6.17282 10.3104 6.12673 10.2414 6.06862 10.1833L2.13487 6.25079H16.8761C17.0419 6.25079 17.2008 6.18494 17.3181 6.06773C17.4353 5.95052 17.5011 5.79155 17.5011 5.62579Z" fill="black" fill-opacity="0.5"/>
</svg>
