<svg width="55" height="55" viewBox="0 0 55 55" fill="none" xmlns="http://www.w3.org/2000/svg">
<circle cx="27.5" cy="27.5" r="27.5" fill="#1F3F7A"/>
<g clip-path="url(#clip0_122_331)">
<path d="M28.0499 18.5969C28.0499 18.3507 27.9521 18.1147 27.778 17.9406C27.604 17.7665 27.3679 17.6688 27.1217 17.6688C26.8756 17.6688 26.6395 17.7665 26.4654 17.9406C26.2914 18.1147 26.1936 18.3507 26.1936 18.5969V28.8063C26.1937 28.9699 26.2369 29.1305 26.3191 29.272C26.4012 29.4135 26.5193 29.5307 26.6614 29.6119L33.1583 33.3244C33.3715 33.4396 33.6213 33.4669 33.8543 33.4003C34.0874 33.3338 34.2851 33.1788 34.4054 32.9683C34.5256 32.7579 34.5588 32.5088 34.4978 32.2743C34.4368 32.0397 34.2865 31.8383 34.079 31.7131L28.0499 28.2679V18.5969Z" fill="white"/>
<path d="M28.0499 41.8C31.9884 41.8 35.7656 40.2355 38.5505 37.4505C41.3354 34.6656 42.8999 30.8885 42.8999 26.95C42.8999 23.0115 41.3354 19.2344 38.5505 16.4495C35.7656 13.6646 31.9884 12.1 28.0499 12.1C24.1115 12.1 20.3343 13.6646 17.5494 16.4495C14.7645 19.2344 13.2 23.0115 13.2 26.95C13.2 30.8885 14.7645 34.6656 17.5494 37.4505C20.3343 40.2355 24.1115 41.8 28.0499 41.8ZM41.0437 26.95C41.0437 30.3962 39.6747 33.7012 37.2379 36.138C34.8011 38.5748 31.4961 39.9438 28.0499 39.9438C24.6038 39.9438 21.2988 38.5748 18.862 36.138C16.4252 33.7012 15.0562 30.3962 15.0562 26.95C15.0562 23.5038 16.4252 20.1988 18.862 17.762C21.2988 15.3252 24.6038 13.9563 28.0499 13.9563C31.4961 13.9563 34.8011 15.3252 37.2379 17.762C39.6747 20.1988 41.0437 23.5038 41.0437 26.95Z" fill="white"/>
</g>
<defs>
<clipPath id="clip0_122_331">
<rect width="29.7" height="29.7" fill="white" transform="translate(13.2 12.1)"/>
</clipPath>
</defs>
</svg>
