<svg width="55" height="55" viewBox="0 0 55 55" fill="none" xmlns="http://www.w3.org/2000/svg">
<circle cx="27.5" cy="27.5" r="27.5" fill="#1F3F7A"/>
<path d="M20.425 33.0122C20.6998 36.1066 23.2336 38.3026 27.0908 38.5866V40.8438H29.0269V38.5866C33.2406 38.2543 35.8542 35.9173 35.8542 32.4609C35.8542 29.5095 34.0963 27.8018 30.3671 26.8402L29.0269 26.4931V19.4356C31.1096 19.6398 32.5148 20.761 32.8694 22.4353H35.598C35.2899 19.4653 32.7394 17.3344 29.0269 17.0986V14.8563H27.0908V17.145C23.4916 17.572 21.0209 19.8774 21.0209 23.0033C21.0209 25.7023 22.814 27.6124 25.9604 28.418L27.0927 28.7187V36.2013C24.9599 35.8857 23.4916 34.7163 23.137 33.0122H20.425ZM26.7196 25.8917C24.7835 25.4035 23.7496 24.3603 23.7496 22.892C23.7496 21.1397 25.0564 19.8459 27.0908 19.4987V25.9863L26.7196 25.8917ZM29.6729 29.3666C32.0619 29.9661 33.1107 30.9611 33.1107 32.6503C33.1107 34.6866 31.5774 36.0435 29.0269 36.2495V29.2051L29.6729 29.3666Z" fill="white"/>
</svg>
