<svg width="55" height="55" viewBox="0 0 55 55" fill="none" xmlns="http://www.w3.org/2000/svg">
<circle cx="27.5" cy="27.5" r="27.5" fill="#1F3F7A"/>
<g clip-path="url(#clip0_123_352)">
<path fill-rule="evenodd" clip-rule="evenodd" d="M32.2198 24.4085C32.3062 24.4947 32.3748 24.5971 32.4216 24.7099C32.4684 24.8227 32.4925 24.9435 32.4925 25.0656C32.4925 25.1877 32.4684 25.3086 32.4216 25.4213C32.3748 25.5341 32.3062 25.6365 32.2198 25.7227L26.6511 31.2915C26.5648 31.3779 26.4624 31.4465 26.3497 31.4933C26.2369 31.5401 26.116 31.5642 25.9939 31.5642C25.8719 31.5642 25.751 31.5401 25.6382 31.4933C25.5255 31.4465 25.423 31.3779 25.3368 31.2915L22.5525 28.5071C22.4662 28.4208 22.3977 28.3184 22.351 28.2056C22.3043 28.0929 22.2803 27.972 22.2803 27.85C22.2803 27.728 22.3043 27.6071 22.351 27.4944C22.3977 27.3816 22.4662 27.2792 22.5525 27.1929C22.6388 27.1066 22.7412 27.0381 22.8539 26.9914C22.9667 26.9447 23.0875 26.9207 23.2096 26.9207C23.3316 26.9207 23.4525 26.9447 23.5652 26.9914C23.6779 27.0381 23.7804 27.1066 23.8667 27.1929L25.9939 29.322L30.9056 24.4085C30.9918 24.3221 31.0942 24.2535 31.207 24.2067C31.3197 24.1599 31.4406 24.1358 31.5627 24.1358C31.6848 24.1358 31.8057 24.1599 31.9184 24.2067C32.0312 24.2535 32.1336 24.3221 32.2198 24.4085Z" fill="white"/>
<path d="M32.0692 17.6648L30.3596 15.9125L31.6868 14.6168L32.8414 15.7992L34.4935 15.7788C35.2086 15.7703 35.9182 15.905 36.5805 16.1747C37.2429 16.4445 37.8446 16.844 38.3503 17.3497C38.856 17.8554 39.2555 18.4571 39.5252 19.1194C39.795 19.7818 39.9296 20.4914 39.9212 21.2065L39.9026 22.8585L41.0832 24.0131C41.5945 24.5128 42.0008 25.1096 42.2782 25.7685C42.5556 26.4274 42.6985 27.1351 42.6985 27.85C42.6985 28.5649 42.5556 29.2726 42.2782 29.9315C42.0008 30.5904 41.5945 31.1872 41.0832 31.6869L39.9007 32.8415L39.9212 34.4935C39.9296 35.2086 39.795 35.9182 39.5252 36.5806C39.2555 37.2429 38.856 37.8446 38.3503 38.3503C37.8446 38.856 37.2429 39.2555 36.5805 39.5253C35.9182 39.795 35.2086 39.9297 34.4935 39.9212L32.8414 39.9026L31.6868 41.0832C31.1872 41.5945 30.5904 42.0008 29.9315 42.2782C29.2726 42.5556 28.5649 42.6985 27.85 42.6985C27.1351 42.6985 26.4274 42.5556 25.7685 42.2782C25.1096 42.0008 24.5127 41.5945 24.0131 41.0832L22.8585 39.9008L21.2065 39.9212C20.4913 39.9297 19.7817 39.795 19.1194 39.5253C18.4571 39.2555 17.8553 38.856 17.3496 38.3503C16.8439 37.8446 16.4445 37.2429 16.1747 36.5806C15.9049 35.9182 15.7703 35.2086 15.7788 34.4935L15.7973 32.8415L14.6168 31.6869C14.1054 31.1872 13.6991 30.5904 13.4218 29.9315C13.1444 29.2726 13.0015 28.5649 13.0015 27.85C13.0015 27.1351 13.1444 26.4274 13.4218 25.7685C13.6991 25.1096 14.1054 24.5128 14.6168 24.0131L15.7992 22.8585L15.7788 21.2065C15.7703 20.4914 15.9049 19.7818 16.1747 19.1194C16.4445 18.4571 16.8439 17.8554 17.3496 17.3497C17.8553 16.844 18.4571 16.4445 19.1194 16.1747C19.7817 15.905 20.4913 15.7703 21.2065 15.7788L22.8585 15.7974L24.0131 14.6168C24.5127 14.1055 25.1096 13.6992 25.7685 13.4218C26.4274 13.1444 27.1351 13.0015 27.85 13.0015C28.5649 13.0015 29.2726 13.1444 29.9315 13.4218C30.5904 13.6992 31.1872 14.1055 31.6868 14.6168L30.3596 15.9125C30.0329 15.5779 29.6425 15.3121 29.2115 15.1306C28.7805 14.9491 28.3176 14.8557 27.85 14.8557C27.3823 14.8557 26.9194 14.9491 26.4884 15.1306C26.0574 15.3121 25.6671 15.5779 25.3403 15.9125L23.6326 17.6648L21.1823 17.6351C20.7149 17.6298 20.2511 17.7181 19.8182 17.8946C19.3854 18.0711 18.9922 18.3324 18.6617 18.663C18.3312 18.9937 18.0702 19.387 17.8939 19.82C17.7176 20.2529 17.6296 20.7168 17.635 21.1842L17.6647 23.6307L15.9124 25.3404C15.5779 25.6671 15.3121 26.0575 15.1306 26.4885C14.9491 26.9194 14.8556 27.3824 14.8556 27.85C14.8556 28.3176 14.9491 28.7806 15.1306 29.2115C15.3121 29.6425 15.5779 30.0329 15.9124 30.3597L17.6647 32.0674L17.635 34.5177C17.6298 34.9851 17.718 35.4489 17.8946 35.8817C18.0711 36.3146 18.3324 36.7078 18.663 37.0383C18.9937 37.3687 19.387 37.6298 19.82 37.8061C20.2529 37.9824 20.7167 38.0704 21.1842 38.0649L23.6307 38.0352L25.3403 39.7875C25.6671 40.1221 26.0574 40.3879 26.4884 40.5694C26.9194 40.7509 27.3823 40.8443 27.85 40.8443C28.3176 40.8443 28.7805 40.7509 29.2115 40.5694C29.6425 40.3879 30.0329 40.1221 30.3596 39.7875L32.0674 38.0352L34.5176 38.0649C34.9851 38.0702 35.4488 37.9819 35.8817 37.8054C36.3146 37.6289 36.7078 37.3676 37.0382 37.037C37.3687 36.7063 37.6298 36.313 37.8061 35.88C37.9824 35.4471 38.0704 34.9832 38.0649 34.5158L38.0352 32.0693L39.7875 30.3597C40.122 30.0329 40.3879 29.6425 40.5693 29.2115C40.7508 28.7806 40.8443 28.3176 40.8443 27.85C40.8443 27.3824 40.7508 26.9194 40.5693 26.4885C40.3879 26.0575 40.122 25.6671 39.7875 25.3404L38.0352 23.6326L38.0649 21.1824C38.0701 20.7149 37.9819 20.2511 37.8054 19.8183C37.6288 19.3854 37.3676 18.9922 37.0369 18.6617C36.7063 18.3313 36.3129 18.0702 35.88 17.8939C35.447 17.7176 34.9832 17.6296 34.5158 17.6351L32.0692 17.6648Z" fill="white"/>
</g>
<defs>
<clipPath id="clip0_123_352">
<rect width="29.7" height="29.7" fill="white" transform="translate(13 13)"/>
</clipPath>
</defs>
</svg>
