<svg width="95" height="15" viewBox="0 0 95 15" fill="none" xmlns="http://www.w3.org/2000/svg">
<g clip-path="url(#clip0_130_445)">
<path d="M3.3835 14.4664C3.02191 14.6519 2.61162 14.3268 2.68468 13.9119L3.46219 9.48103L0.162017 6.3373C-0.146174 6.04316 0.0140106 5.50547 0.427117 5.44739L5.01532 4.79541L7.06118 0.742093C7.24572 0.376761 7.74501 0.376761 7.92955 0.742093L9.97541 4.79541L14.5636 5.44739C14.9767 5.50547 15.1369 6.04316 14.8278 6.3373L11.5285 9.48103L12.306 13.9119C12.3791 14.3268 11.9688 14.6519 11.6072 14.4664L7.49396 12.3531L3.3835 14.4664Z" fill="black"/>
</g>
<g clip-path="url(#clip1_130_445)">
<path d="M23.3454 14.4724C22.9838 14.6579 22.5735 14.3328 22.6466 13.9179L23.4241 9.48703L20.1239 6.3433C19.8157 6.04916 19.9759 5.51147 20.389 5.45339L24.9772 4.80141L27.0231 0.748096C27.2076 0.382763 27.7069 0.382763 27.8915 0.748096L29.9373 4.80141L34.5255 5.45339C34.9386 5.51147 35.0988 6.04916 34.7897 6.3433L31.4905 9.48703L32.268 13.9179C32.341 14.3328 31.9307 14.6579 31.5691 14.4724L27.4559 12.3591L23.3454 14.4724Z" fill="black"/>
</g>
<g clip-path="url(#clip2_130_445)">
<path d="M43.3132 14.4724C42.9516 14.6579 42.5413 14.3328 42.6144 13.9179L43.3919 9.48703L40.0917 6.3433C39.7835 6.04916 39.9437 5.51147 40.3568 5.45339L44.945 4.80141L46.9909 0.748096C47.1754 0.382763 47.6747 0.382763 47.8592 0.748096L49.9051 4.80141L54.4933 5.45339C54.9064 5.51147 55.0666 6.04916 54.7575 6.3433L51.4582 9.48703L52.2357 13.9179C52.3088 14.3328 51.8985 14.6579 51.5369 14.4724L47.4236 12.3591L43.3132 14.4724Z" fill="black"/>
</g>
<g clip-path="url(#clip3_130_445)">
<path d="M63.2814 14.4724C62.9199 14.6579 62.5096 14.3328 62.5826 13.9179L63.3601 9.48703L60.06 6.3433C59.7518 6.04916 59.912 5.51147 60.3251 5.45339L64.9133 4.80141L66.9591 0.748096C67.1437 0.382763 67.643 0.382763 67.8275 0.748096L69.8734 4.80141L74.4616 5.45339C74.8747 5.51147 75.0348 6.04916 74.7257 6.3433L71.4265 9.48703L72.204 13.9179C72.2771 14.3328 71.8668 14.6579 71.5052 14.4724L67.3919 12.3591L63.2814 14.4724Z" fill="black"/>
</g>
<g clip-path="url(#clip4_130_445)">
<path d="M83.2434 14.4784C82.8818 14.6639 82.4715 14.3388 82.5445 13.9239L83.322 9.49304L80.0219 6.3493C79.7137 6.05516 79.8739 5.51747 80.287 5.45939L84.8752 4.80741L86.921 0.754098C87.1056 0.388766 87.6049 0.388766 87.7894 0.754098L89.8353 4.80741L94.4235 5.45939C94.8366 5.51747 94.9968 6.05516 94.6876 6.3493L91.3884 9.49304L92.1659 13.9239C92.239 14.3388 91.8287 14.6639 91.4671 14.4784L87.3538 12.3651L83.2434 14.4784Z" fill="black"/>
</g>
<defs>
<clipPath id="clip0_130_445">
<rect width="14.988" height="14.988" rx="7.494" fill="white"/>
</clipPath>
<clipPath id="clip1_130_445">
<rect x="19.9619" y="0.00600243" width="14.988" height="14.988" rx="7.494" fill="white"/>
</clipPath>
<clipPath id="clip2_130_445">
<rect x="39.9297" y="0.00600243" width="14.988" height="14.988" rx="7.494" fill="white"/>
</clipPath>
<clipPath id="clip3_130_445">
<rect x="59.8979" y="0.00600243" width="14.988" height="14.988" rx="7.494" fill="white"/>
</clipPath>
<clipPath id="clip4_130_445">
<rect x="79.8599" y="0.0120049" width="14.988" height="14.988" rx="7.494" fill="white"/>
</clipPath>
</defs>
</svg>
