<svg width="29" height="29" viewBox="0 0 29 29" fill="none" xmlns="http://www.w3.org/2000/svg">
<g clip-path="url(#clip0_340_2)">
<path d="M9.67978 12.3197C9.4464 12.3197 9.22257 12.4124 9.05754 12.5774C8.89252 12.7425 8.7998 12.9663 8.7998 13.1997C8.7998 13.4331 8.89252 13.6569 9.05754 13.8219C9.22257 13.9869 9.4464 14.0797 9.67978 14.0797H18.4796C18.7129 14.0797 18.9368 13.9869 19.1018 13.8219C19.2668 13.6569 19.3595 13.4331 19.3595 13.1997C19.3595 12.9663 19.2668 12.7425 19.1018 12.5774C18.9368 12.4124 18.7129 12.3197 18.4796 12.3197H9.67978ZM8.7998 16.7196C8.7998 16.4862 8.89252 16.2624 9.05754 16.0974C9.22257 15.9323 9.4464 15.8396 9.67978 15.8396H18.4796C18.7129 15.8396 18.9368 15.9323 19.1018 16.0974C19.2668 16.2624 19.3595 16.4862 19.3595 16.7196C19.3595 16.953 19.2668 17.1768 19.1018 17.3418C18.9368 17.5069 18.7129 17.5996 18.4796 17.5996H9.67978C9.4464 17.5996 9.22257 17.5069 9.05754 17.3418C8.89252 17.1768 8.7998 16.953 8.7998 16.7196ZM8.7998 20.2395C8.7998 20.0061 8.89252 19.7823 9.05754 19.6173C9.22257 19.4522 9.4464 19.3595 9.67978 19.3595H13.1997C13.4331 19.3595 13.6569 19.4522 13.8219 19.6173C13.987 19.7823 14.0797 20.0061 14.0797 20.2395C14.0797 20.4729 13.987 20.6967 13.8219 20.8617C13.6569 21.0268 13.4331 21.1195 13.1997 21.1195H9.67978C9.4464 21.1195 9.22257 21.0268 9.05754 20.8617C8.89252 20.6967 8.7998 20.4729 8.7998 20.2395Z" fill="white"/>
<path d="M16.7197 0H7.03993C6.10639 0 5.21109 0.370847 4.55098 1.03096C3.89087 1.69107 3.52002 2.58637 3.52002 3.51991V24.6394C3.52002 25.5729 3.89087 26.4682 4.55098 27.1283C5.21109 27.7884 6.10639 28.1593 7.03993 28.1593H21.1196C22.0531 28.1593 22.9484 27.7884 23.6085 27.1283C24.2686 26.4682 24.6395 25.5729 24.6395 24.6394V7.9198L16.7197 0ZM16.7197 1.75995V5.27986C16.7197 5.98002 16.9978 6.65149 17.4929 7.14658C17.988 7.64166 18.6595 7.9198 19.3596 7.9198H22.8795V24.6394C22.8795 25.1061 22.6941 25.5538 22.364 25.8838C22.034 26.2139 21.5863 26.3993 21.1196 26.3993H7.03993C6.57316 26.3993 6.12551 26.2139 5.79545 25.8838C5.4654 25.5538 5.27997 25.1061 5.27997 24.6394V3.51991C5.27997 3.05314 5.4654 2.60549 5.79545 2.27543C6.12551 1.94538 6.57316 1.75995 7.03993 1.75995H16.7197Z" fill="white"/>
</g>
<defs>
<clipPath id="clip0_340_2">
<rect width="28.1593" height="28.1593" fill="white"/>
</clipPath>
</defs>
</svg>
